#!OML:ASF E:/inclinewalkrobotboard/Project1/Captureday1/Session1/subject1.ASF
:FULLY-SPECIFIED
:DEGREES
99
root 0 0 0 -2.2692230234833346 -3.929994655828906 0.46795835643688594
lowerback 7.475054312260956 1.539643728121142 -2.491293172705402
upperback 1.7565970722623252 1.9119908225235562 -0.03294962110394273
thorax -2.4040045858298726 1.0036789852509758 1.2610509379067287
lowerneck -9.455741698945218 -5.46642252329814 -6.289650221694769
upperneck 31.28378034479331 -8.590429959191145 5.84819602322944
head 11.686384327423319 -3.9142034638586534 1.9342826108758884
rclavicle -2.111456524539589E-15 1.3484662553910802E-15
rhumerus -7.515806829609481 1.146176881210783 -79.33013661798695
rradius 48.56891603400447
rwrist -20.5729113914539
rhand -42.00935817979656 16.12360012142937
rfingers 7.12501999999994
rthumb -14.849118443570934 -13.281065784934778
lclavicle -6.153286960597153E-15 6.328675619398979E-16
lhumerus -30.464395715554794 11.436674965310573 77.98086871339704
lradius 25.027615014559455
lwrist -4.474459927876255
lhand -24.087562711020897 21.950369539129564
lfingers 7.12501999999995
lthumb 2.3930178373612665 51.8874028447166
rfemur -13.31960737070483 7.695172109778342 32.8873954892123
rtibia 36.063606279430196
rfoot -14.001507809978811 -9.66237878877503
rtoes 6.841590789610548
lfemur -25.340623110212007 3.417734409259701 -14.750367966663518
ltibia 56.89770867038751
lfoot -3.452235583955167 -7.162395845986966
ltoes -6.267401065145587
100
root 0 0 0 -2.2789070315150193 -3.9266784680245217 0.46930628295865523
lowerback 7.433685607871097 1.5455574815547468 -2.483563941343322
upperback 1.7655011014810928 1.9213753175511812 -0.036176780298187716
thorax -2.3691363190651904 1.008785876285206 1.253126832347999
lowerneck -9.410988938157217 -5.463649837930129 -6.295185619834918
upperneck 31.299029264861332 -8.59369223279488 5.836082551127639
head 11.688638172979603 -3.9159612229633445 1.9277526343828162
rclavicle -2.501053727869189E-15 1.4110948593085951E-15
rhumerus -8.232866673444633 1.9948978540242863 -79.4909127878489
rradius 49.46691638544872
rwrist -20.918124355865814
rhand -41.911177193401265 15.779477449907448
rfingers 7.125019999999942
rthumb -14.762499575099614 -13.635046187834018
lclavicle -6.338713833830848E-15 7.226969427508409E-16
lhumerus -30.456566575886956 11.391073080195827 78.0124877973142
lradius 25.014915184066023
lwrist -4.493223248166574
lhand -24.026867209991725 21.976470894443796
lfingers 7.12501999999995
lthumb 2.4514548899724944 51.91249712592516
rfemur -10.256346460942552 7.880752636980244 33.182353533295554
rtibia 33.53377652814914
rfoot -15.691152937220162 -9.559288288202643
rtoes 6.690472098398553
lfemur -25.921082525202255 3.6753853317987595 -14.024138785572994
ltibia 58.920744582730855
lfoot -4.059478508310907 -6.156382424979158
ltoes -7.077745528023279
101
root 0 0 0 -2.2661983526947873 -3.906143857646995 0.47410175125702686
lowerback 7.425903770235506 1.5553864934792774 -2.4834100875458165
upperback 1.7875493623617618 1.9342338835770754 -0.04242326587809442
thorax -2.340469464536313 1.015915071307649 1.245032363022954
lowerneck -9.357519173231028 -5.469792834052776 -6.316968265285963
upperneck 31.24875174461809 -8.60183704658359 5.866547456527896
head 11.671011833409322 -3.92064586432459 1.9387263308300997
rclavicle -2.7352359875631753E-15 1.4941773117822506E-15
rhumerus -8.71716098498344 2.5909581428267066 -79.60029106174895
rradius 50.15002289210716
rwrist -21.106548125302506
rhand -41.87156880789315 15.570248768387682
rfingers 7.125019999999945
rthumb -14.729054375265704 -13.84961928868415
lclavicle -6.4787494629931315E-15 8.56705129196637E-16
lhumerus -30.493690681778368 11.38552479300676 77.96629670667505
lradius 24.985506034886626
lwrist -4.535185281160982
lhand -24.00028762470352 21.9936791056392
lfingers 7.125019999999951
lthumb 2.4770814920746296 51.9291843982486
rfemur -6.870870483059397 8.051856374164846 33.550811961504465
rtibia 31.30866529585667
rfoot -17.320738467965946 -9.463154451013573
rtoes 6.283335727885921
lfemur -26.63286293574442 3.676332962254694 -13.64271052269594
ltibia 58.849177956597885
lfoot -4.501598225646754 -5.480746433546964
ltoes -7.376933376509868
102
root 0 0 0 -2.240656557534918 -3.876141751274449 0.48196913734984076
lowerback 7.432566806630046 1.5684231762016434 -2.4883593151010284
upperback 1.8208320802588545 1.9503195444127142 -0.051061246248433445
thorax -2.3084579042756044 1.0249870181193228 1.2364815120411756
lowerneck -9.287679418675316 -5.48207191103026 -6.351481375236514
upperneck 31.168300114106028 -8.61574773768645 5.922540991307571
head 11.643524360359823 -3.9284858198493464 1.9596410614082949
rclavicle -2.944106068815938E-15 1.609469200777169E-15
rhumerus -9.186931575828172 3.161515118674366 -79.713951478643
rradius 50.7929075306719
rwrist -21.26755546169709
rhand -41.84985467086752 15.394967453535738
rfingers 7.125019999999947
rthumb -14.712488718304844 -14.029171482437416
lclavicle -6.627462488965942E-15 1.0485178001007448E-15
lhumerus -30.56387414277893 11.417444495130937 77.85914507477389
lradius 24.945285854096294
lwrist -4.593132282429868
lhand -24.00616727446462 21.999258424036906
lfingers 7.125019999999951
lthumb 2.471515961358358 51.934529239702606
rfemur -3.333397742721334 8.20738824418594 33.990770018879125
rtibia 29.267323565324773
rfoot -18.89720342458322 -9.334499917061263
rtoes 5.766186230766067
lfemur -27.629316948065618 3.4965460321435646 -13.350208391882298
ltibia 57.397986119897375
lfoot -4.908266044954909 -4.821819757097101
ltoes -7.458156159551336
103
root 0 0 0 -2.2070691044723842 -3.8400567852448795 0.49173395035437
lowerback 7.44944422933426 1.5833345359694746 -2.4973852332849793
upperback 1.8605002908196266 1.968139814659346 -0.06106894683490427
thorax -2.2757657826508364 1.0351075957061875 1.2281765482819402
lowerneck -9.210829205671756 -5.498694938913828 -6.394378225990455
upperneck 31.07407538489117 -8.633940649825755 5.994395256890353
head 11.611849444548398 -3.9385239425593235 1.9867079334310027
rclavicle -3.0465031039925327E-15 1.715278917629891E-15
rhumerus -9.582043188820538 3.633342529754728 -79.81622600608671
rradius 51.30059166127795
rwrist -21.38158768594578
rhand -41.844580085416226 15.281612051911074
rfingers 7.125019999999949
rthumb -14.710761603551823 -14.145525989815063
lclavicle -6.7153501445966654E-15 1.2348359341920107E-15
lhumerus -30.65612505337933 11.484299740705143 77.70651550300477
lradius 24.898609151970575
lwrist -4.661066079495177
lhand -24.04288087808795 21.99080829555164
lfingers 7.125019999999952
lthumb 2.4363272991379907 51.92626607564496
rfemur -0.5876357179551022 8.32391752712681 34.33884956422645
rtibia 27.7896892687072
rfoot -20.046779590405514 -9.236416757556228
rtoes 5.273095160406667
lfemur -28.88239662228821 3.1371603354248148 -13.113087450352085
ltibia 54.63597971549954
lfoot -5.258577093847779 -4.164610544143491
ltoes -7.337589643232484
104
root 0 0 0 -2.1729406921196963 -3.8035022487879226 0.5011688795502021
lowerback 7.471082438167189 1.5976389468521908 -2.508058200593224
upperback 1.897996608935737 1.9849224661670326 -0.07055738490504304
thorax -2.2483213127432773 1.0446191129701745 1.221188981778703
lowerneck -9.143828908247395 -5.51608975997467 -6.436973298352019
upperneck 30.986911984393338 -8.652554968779189 6.066271667929192
head 11.583308663227289 -3.948567275434014 2.013922099337305
rclavicle -2.9936693968254286E-15 1.7664600552372035E-15
rhumerus -9.856785526906446 3.945414742366366 -79.89440230880314
rradius 51.58928743743613
rwrist -21.441121467635238
rhand -41.84908502825438 15.24516262580183
rfingers 7.12501999999995
rthumb -14.716926867630114 -14.183831559541744
lclavicle -6.700942001945305E-15 1.3556250821242176E-15
lhumerus -30.757205793112078 11.577287455345614 77.53006018655442
lradius 24.852551841137764
lwrist -4.7283152390824155
lhand -24.106963758356382 21.968539804595522
lfingers 7.125019999999954
lthumb 2.374877786658448 51.90462971158176
rfemur 1.069696259802471 8.39850486783103 34.52832384117063
rtibia 26.94859056964905
rfoot -20.6748344923987 -9.193635865436645
rtoes 4.853200470324742
lfemur -30.14993025591118 2.6540023231065 -12.943408651788703
ltibia 51.03653996069889
lfoot -5.49874082090669 -3.617781767536753
ltoes -7.048067517316202
